<svg width="12" height="12" viewBox="0 0 12 12" fill="none" xmlns="http://www.w3.org/2000/svg">
<path d="M6 6C6.63899 6 7.26362 5.82405 7.79492 5.49441C8.32622 5.16477 8.74031 4.69623 8.98484 4.14805C9.22937 3.59987 9.29335 2.99667 9.16869 2.41473C9.04403 1.83279 8.73633 1.29824 8.2845 0.878681C7.83267 0.459123 7.257 0.173401 6.63029 0.0576455C6.00358 -0.0581101 5.35398 0.00129984 4.76364 0.228363C4.17329 0.455426 3.66871 0.839943 3.31371 1.33329C2.95871 1.82664 2.76923 2.40666 2.76923 3C2.76923 3.79565 3.10961 4.55871 3.7155 5.12132C4.32139 5.68393 5.14315 6 6 6ZM6 6.85714C3.9975 6.85714 0 8.00571 0 10.2857V12H12V10.2857C12 8.00571 8.0025 6.85714 6 6.85714Z" fill="#386679"/>
</svg>
