<svg width="10" height="6" viewBox="0 0 10 6" fill="none" xmlns="http://www.w3.org/2000/svg">
<path d="M9.80003 0.239909C9.73306 0.167674 9.65251 0.109339 9.563 0.068235C9.47348 0.0271306 9.37675 0.00406318 9.27831 0.000348631C9.17988 -0.00336592 9.08168 0.0123459 8.98932 0.0465866C8.89696 0.0808273 8.81225 0.132927 8.74003 0.199909L5.00003 3.72691L1.26003 0.199909C1.1878 0.132935 1.10309 0.0808433 1.01073 0.0466073C0.918372 0.0123714 0.820173 -0.00333849 0.721743 0.000376082C0.623313 0.00409065 0.526577 0.0271558 0.437062 0.0682548C0.347546 0.109354 0.267001 0.167683 0.200027 0.23991C0.133053 0.312137 0.0809608 0.396848 0.0467248 0.489207C0.0124889 0.581566 -0.00322098 0.679764 0.000493591 0.778194C0.00420816 0.876624 0.0272728 0.973359 0.0683723 1.06288C0.109472 1.15239 0.1678 1.23294 0.240027 1.29991L4.49003 5.29991C4.62871 5.42853 4.81088 5.5 5.00003 5.5C5.18918 5.5 5.37134 5.42853 5.51003 5.29991L9.76003 1.29991C9.83226 1.23294 9.8906 1.1524 9.9317 1.06288C9.97281 0.973363 9.99587 0.876626 9.99959 0.778194C10.0033 0.679761 9.98759 0.581562 9.95335 0.489202C9.91911 0.396842 9.86701 0.312131 9.80003 0.239909Z" fill="#92B0B3"/>
</svg>
