<svg width="20" height="20" viewBox="0 0 20 20" fill="" xmlns="http://www.w3.org/2000/svg">
<path d="M3.40582 5.39753C3.75907 5.04426 4.17844 4.76404 4.63999 4.57285C5.10155 4.38167 5.59624 4.28326 6.09582 4.28326C6.5954 4.28326 7.09009 4.38167 7.55164 4.57285C8.01319 4.76404 8.43257 5.04426 8.78582 5.39753L9.99998 6.61169L11.2141 5.39753C11.9277 4.68409 12.8954 4.28334 13.9044 4.28341C14.9135 4.28349 15.8811 4.6844 16.5946 5.39794C17.308 6.11149 17.7088 7.07921 17.7087 8.08824C17.7086 9.09726 17.3077 10.0649 16.5942 10.7784L15.38 11.9917L15.3908 12.0025L10.0108 17.3834L9.99998 17.3725L9.98915 17.3834L4.60915 12.0025L4.61998 11.9917L3.40582 10.7784C3.05243 10.4251 2.7721 10.0057 2.58084 9.54404C2.38958 9.08241 2.29114 8.58762 2.29114 8.08794C2.29114 7.58826 2.38958 7.09348 2.58084 6.63185C2.7721 6.17022 3.05243 5.75079 3.40582 5.39753Z" stroke="#92B0B3" stroke-width="1.5" stroke-linejoin="round"/>
</svg>
