<svg width="26" height="26" viewBox="0 0 26 26" fill="none" xmlns="http://www.w3.org/2000/svg">
<path d="M13 19.25C13.3542 19.25 13.6513 19.13 13.8913 18.89C14.1313 18.65 14.2508 18.3533 14.25 18V13C14.25 12.6458 14.13 12.3492 13.89 12.11C13.65 11.8708 13.3533 11.7508 13 11.75C12.6467 11.7492 12.35 11.8692 12.11 12.11C11.87 12.3508 11.75 12.6475 11.75 13V18C11.75 18.3542 11.87 18.6512 12.11 18.8912C12.35 19.1312 12.6467 19.2508 13 19.25ZM13 9.25C13.3542 9.25 13.6513 9.13 13.8913 8.89C14.1313 8.65 14.2508 8.35333 14.25 8C14.2492 7.64667 14.1292 7.35 13.89 7.11C13.6508 6.87 13.3542 6.75 13 6.75C12.6458 6.75 12.3492 6.87 12.11 7.11C11.8708 7.35 11.7508 7.64667 11.75 8C11.7492 8.35333 11.8692 8.65042 12.11 8.89125C12.3508 9.13208 12.6475 9.25167 13 9.25ZM13 25.5C11.2708 25.5 9.64584 25.1717 8.125 24.515C6.60417 23.8583 5.28125 22.9679 4.15625 21.8437C3.03125 20.7196 2.14084 19.3967 1.485 17.875C0.829168 16.3533 0.500835 14.7283 0.500002 13C0.499168 11.2717 0.827502 9.64667 1.485 8.125C2.1425 6.60333 3.03292 5.28042 4.15625 4.15625C5.27958 3.03208 6.6025 2.14167 8.125 1.485C9.6475 0.828333 11.2725 0.5 13 0.5C14.7275 0.5 16.3525 0.828333 17.875 1.485C19.3975 2.14167 20.7204 3.03208 21.8438 4.15625C22.9671 5.28042 23.8579 6.60333 24.5163 8.125C25.1746 9.64667 25.5025 11.2717 25.5 13C25.4975 14.7283 25.1692 16.3533 24.515 17.875C23.8608 19.3967 22.9704 20.7196 21.8438 21.8437C20.7171 22.9679 19.3942 23.8587 17.875 24.5162C16.3558 25.1737 14.7308 25.5017 13 25.5Z" fill="#92B0B3"/>
</svg>
