<svg width="16" height="16" viewBox="0 0 16 16" fill="none" xmlns="http://www.w3.org/2000/svg">
<path d="M8 7.66665C7.55797 7.66665 7.13405 7.49105 6.82149 7.17849C6.50893 6.86593 6.33334 6.44201 6.33334 5.99998C6.33334 5.55795 6.50893 5.13403 6.82149 4.82147C7.13405 4.50891 7.55797 4.33331 8 4.33331C8.44203 4.33331 8.86595 4.50891 9.17851 4.82147C9.49107 5.13403 9.66667 5.55795 9.66667 5.99998C9.66667 6.21885 9.62356 6.43558 9.5398 6.63779C9.45604 6.83999 9.33328 7.02373 9.17851 7.17849C9.02375 7.33325 8.84002 7.45602 8.63781 7.53978C8.4356 7.62354 8.21887 7.66665 8 7.66665ZM8 1.33331C6.76233 1.33331 5.57534 1.82498 4.70017 2.70015C3.825 3.57532 3.33334 4.7623 3.33334 5.99998C3.33334 9.49998 8 14.6666 8 14.6666C8 14.6666 12.6667 9.49998 12.6667 5.99998C12.6667 4.7623 12.175 3.57532 11.2998 2.70015C10.4247 1.82498 9.23768 1.33331 8 1.33331Z" fill="#92B0B3"/>
</svg>
