<svg width="16" height="16" viewBox="0 0 16 16" fill="none" xmlns="http://www.w3.org/2000/svg">
<path d="M8 8C8.63899 8 9.26362 7.82405 9.79492 7.49441C10.3262 7.16477 10.7403 6.69623 10.9848 6.14805C11.2294 5.59987 11.2934 4.99667 11.1687 4.41473C11.044 3.83279 10.7363 3.29824 10.2845 2.87868C9.83267 2.45912 9.257 2.1734 8.63029 2.05765C8.00358 1.94189 7.35398 2.0013 6.76364 2.22836C6.17329 2.45543 5.66871 2.83994 5.31371 3.33329C4.95871 3.82664 4.76923 4.40666 4.76923 5C4.76923 5.79565 5.10961 6.55871 5.7155 7.12132C6.32139 7.68393 7.14315 8 8 8ZM8 8.85714C5.9975 8.85714 2 10.0057 2 12.2857V14H14V12.2857C14 10.0057 10.0025 8.85714 8 8.85714Z" fill="#92B0B3"/>
</svg>
