<svg width="12" height="12" viewBox="0 0 12 12" fill="none" xmlns="http://www.w3.org/2000/svg">
<path fill-rule="evenodd" clip-rule="evenodd" d="M1.3333 5.33333C1.3333 4.80805 1.43677 4.2879 1.63778 3.8026C1.8388 3.3173 2.13344 2.87634 2.50488 2.50491C2.87631 2.13347 3.31727 1.83883 3.80257 1.63782C4.28787 1.4368 4.80802 1.33333 5.3333 1.33333C5.85859 1.33333 6.37873 1.4368 6.86404 1.63782C7.34934 1.83883 7.7903 2.13347 8.16173 2.50491C8.53316 2.87634 8.8278 3.3173 9.02882 3.8026C9.22984 4.2879 9.3333 4.80805 9.3333 5.33333C9.3333 6.3942 8.91188 7.41161 8.16173 8.16176C7.41158 8.91191 6.39417 9.33333 5.3333 9.33333C4.27244 9.33333 3.25502 8.91191 2.50488 8.16176C1.75473 7.41161 1.3333 6.3942 1.3333 5.33333ZM5.3333 3.29442e-08C4.48454 0.000121551 3.64807 0.202812 2.8934 0.591226C2.13873 0.979641 1.48765 1.54256 0.994292 2.2332C0.50093 2.92385 0.179525 3.72226 0.0567899 4.5621C-0.0659456 5.40194 0.013533 6.25895 0.28862 7.06189C0.563707 7.86484 1.02646 8.59053 1.63841 9.17867C2.25037 9.7668 2.99386 10.2004 3.80709 10.4434C4.62032 10.6864 5.4798 10.7318 6.31411 10.5758C7.14841 10.4199 7.93345 10.067 8.60397 9.54667L10.862 11.8047C10.9877 11.9261 11.1561 11.9933 11.3309 11.9918C11.5057 11.9903 11.6729 11.9202 11.7965 11.7965C11.9201 11.6729 11.9902 11.5057 11.9918 11.3309C11.9933 11.1561 11.9261 10.9877 11.8046 10.862L9.54664 8.604C10.1587 7.81564 10.5373 6.87135 10.6393 5.87851C10.7413 4.88567 10.5627 3.88413 10.1238 2.98776C9.68481 2.0914 9.00315 1.33619 8.1563 0.808016C7.30944 0.279839 6.33137 -0.00011088 5.3333 3.29442e-08Z" fill="#92B0B3"/>
</svg>
