<svg width="30" height="30" viewBox="0 0 30 30" fill="none" xmlns="http://www.w3.org/2000/svg">
<path d="M2.89018e-06 12.1875C-0.0018957 9.42957 0.931656 6.75256 2.64811 4.5939C4.36456 2.43523 6.76241 0.922553 9.44983 0.303048C12.1373 -0.316457 14.9553 -0.00615694 17.4436 1.18324C19.9318 2.37264 21.9431 4.37081 23.1488 6.85123C24.8939 7.70199 26.4106 8.95736 27.5724 10.5128C28.7343 12.0683 29.5077 13.8788 29.8284 15.7936C30.149 17.7085 30.0075 19.6722 29.4157 21.5213C28.8239 23.3704 27.7989 25.0513 26.4261 26.4242C25.0532 27.797 23.3723 28.822 21.5232 29.4138C19.6741 30.0056 17.7104 30.1471 15.7955 29.8265C13.8807 29.5058 12.0702 28.7324 10.5147 27.5705C8.95926 26.4087 7.70389 24.892 6.85313 23.1469C4.79811 22.1465 3.06581 20.5884 1.85401 18.6505C0.642216 16.7126 -0.000239256 14.4731 2.89018e-06 12.1875ZM9.645 24.1087C10.5401 25.2696 11.6724 26.2263 12.9664 26.915C14.2605 27.6037 15.6864 28.0087 17.1493 28.1028C18.6122 28.197 20.0783 27.9782 21.4499 27.461C22.8215 26.9439 24.0672 26.1402 25.1037 25.1037C26.1402 24.0671 26.9439 22.8215 27.461 21.4499C27.9782 20.0783 28.197 18.6121 28.1029 17.1493C28.0087 15.6864 27.6038 14.2604 26.915 12.9664C26.2263 11.6724 25.2696 10.5401 24.1088 9.64498C24.5333 11.6333 24.4537 13.6963 23.8771 15.6459C23.3006 17.5956 22.2454 19.3701 20.8078 20.8078C19.3701 22.2454 17.5957 23.3006 15.646 23.8771C13.6963 24.4537 11.6333 24.5333 9.645 24.1087ZM8.27063 21.7294C8.95313 22.0119 9.66813 22.2181 10.4156 22.3481L7.65188 19.5844C7.78188 20.3306 7.98813 21.0456 8.27063 21.7294ZM13.1719 22.4531C13.9193 22.3824 14.6568 22.2302 15.3713 21.9994L8.20125 14.8312C7.94918 15.5105 7.76332 16.2125 7.64625 16.9275L13.1719 22.4531ZM17.2163 21.1931C17.7738 20.8806 18.2975 20.5206 18.7875 20.1131L10.1588 11.4862C9.74886 11.9705 9.38067 12.4886 9.05813 13.035L17.2163 21.1931ZM20.1131 18.7856C20.5194 18.2981 20.8794 17.775 21.1931 17.2162L13.0369 9.05623C12.4899 9.37869 11.9711 9.74687 11.4863 10.1569L20.1113 18.7856H20.1131ZM21.9994 15.3694C22.2281 14.6669 22.3794 13.9344 22.4531 13.1719L16.9275 7.64623C16.2025 7.76623 15.5038 7.95123 14.8313 8.20123L21.9994 15.3712V15.3694ZM22.3481 10.4156C22.2201 9.68032 22.0126 8.96111 21.7294 8.2706C21.0389 7.98734 20.3197 7.77988 19.5844 7.65185L22.3481 10.4156Z" fill="#92B0B3"/>
</svg>
