<svg width="30" height="30" viewBox="0 0 30 30" fill="none" xmlns="http://www.w3.org/2000/svg">
<path d="M13.875 19.2137C14.0045 19.2792 14.1498 19.307 14.2943 19.294C14.4388 19.2809 14.5768 19.2276 14.6925 19.14L16.7713 17.5775C16.9177 17.4679 17.0209 17.3103 17.063 17.1324C17.105 16.9544 17.0832 16.7673 17.0013 16.6037C16.9462 16.4956 16.8676 16.4013 16.7713 16.3275L14.6925 14.765C14.5762 14.6784 14.4382 14.6256 14.2938 14.6125C14.1495 14.5977 14.004 14.6251 13.875 14.6912C13.7447 14.7555 13.635 14.855 13.5585 14.9786C13.482 15.1021 13.4418 15.2447 13.4425 15.39V18.515C13.4418 18.6603 13.482 18.8029 13.5585 18.9264C13.635 19.05 13.7447 19.1495 13.875 19.2137ZM15 2.5C12.5277 2.5 10.111 3.23311 8.05538 4.60663C5.99976 5.98015 4.39761 7.93238 3.45151 10.2165C2.50542 12.5005 2.25787 15.0139 2.74019 17.4386C3.2225 19.8634 4.41301 22.0907 6.16117 23.8388C7.90933 25.587 10.1366 26.7775 12.5614 27.2598C14.9861 27.7421 17.4995 27.4946 19.7836 26.5485C22.0676 25.6024 24.0199 24.0002 25.3934 21.9446C26.7669 19.889 27.5 17.4723 27.5 15C27.5 13.3585 27.1767 11.733 26.5485 10.2165C25.9203 8.69989 24.9996 7.3219 23.8388 6.16116C22.6781 5.00043 21.3001 4.07969 19.7836 3.45151C18.267 2.82332 16.6415 2.5 15 2.5ZM19.0788 7.65625L19.7738 7.53125C19.8745 7.51246 19.978 7.51383 20.0781 7.53529C20.1784 7.55674 20.2733 7.59786 20.3575 7.65625C20.4422 7.71434 20.5142 7.78922 20.5688 7.87625C20.6249 7.96222 20.6627 8.0588 20.68 8.16L20.9538 9.7075L17.5625 10.3125L19.0788 7.65625ZM13.8675 8.5775L17.0788 8.0075L15.5625 10.6562L12.3513 11.2188L13.8675 8.5775ZM8.37501 10.3125C8.34534 10.1108 8.39584 9.90545 8.5157 9.74051C8.63555 9.57556 8.81523 9.4641 9.01626 9.43L11.875 8.93L10.3513 11.57L8.64126 11.875L8.37501 10.3125ZM21.25 19.6875C21.25 20.1019 21.0854 20.4993 20.7924 20.7924C20.4993 21.0854 20.1019 21.25 19.6875 21.25H10.3125C9.8981 21.25 9.50068 21.0854 9.20765 20.7924C8.91463 20.4993 8.75001 20.1019 8.75001 19.6875V12.6562H21.25V19.6875Z" fill="#92B0B3"/>
</svg>
